# xmcd CD database file
#
# Track frame offsets:
#	150
#	20544
#	49559
#	76840
#	102705
#	135988
#	171507
#	190295
#	203844
#	228575
#	248692
#	284488
#
# Disc length: 4229 seconds
#
# Revision: 0
# Processed by: cddbd v1.5.1PL2 Copyright (c) Steve Scherf et al.
# Submitted via: CDex 1.51
#
DISCID=a510830c
DTITLE=BBC Big Band - Blue Jazz
DYEAR=1998
DGENRE=Jazz
TTITLE0=Walking On Broadway
TTITLE1=Dim And Blue
TTITLE2=Calling On All Workers
TTITLE3=Blues and the Abscessed Tooth
TTITLE4=Flying
TTITLE5=Man Medley
TTITLE6=Life Is Just A Bowl Of Cherries
TTITLE7=Black Nightgown
TTITLE8=Lover Man
TTITLE9=The Cat
TTITLE10=The Thrill Is Gone
TTITLE11=Fanfare for the Common Man
EXTD=YEAR: 1998
EXTT0=
EXTT1=
EXTT2=
EXTT3=
EXTT4=
EXTT5=
EXTT6=
EXTT7=
EXTT8=
EXTT9=
EXTT10=
EXTT11=
PLAYORDER=
